<svg id="b190f858-f105-4e54-a909-67b1ec0fa802" data-name="Copy" xmlns="http://www.w3.org/2000/svg" viewBox="0 0 520.47 118.51">
  <g>
    <polygon points="29.71 34.85 49.71 14.86 34.85 0 0 34.85 34.85 69.7 49.71 54.84 29.71 34.85" style="fill: #009b49"/>
    <polygon points="103.95 34.85 69.1 0 54.24 14.86 74.23 34.85 54.24 54.84 69.1 69.7 103.95 34.85" style="fill: #3d7edb"/>
    <rect x="39.44" y="22.31" width="25.07" height="25.07" transform="translate(-9.42 46.95) rotate(-45)" style="fill: #522398"/>
  </g>
  <path d="M93,49.39a3.19,3.19,0,1,1-3.26,3.16A3.16,3.16,0,0,1,93,49.39Zm0,.55a2.62,2.62,0,0,0,0,5.24,2.49,2.49,0,0,0,2.49-2.61A2.53,2.53,0,0,0,93,49.94Zm-.55,4.36h-.62V51a6.31,6.31,0,0,1,1.15-.1,1.66,1.66,0,0,1,1.06.26.84.84,0,0,1-.32,1.49v0a1,1,0,0,1,.56.8,2.42,2.42,0,0,0,.24.83h-.64a2.22,2.22,0,0,1-.26-.87c-.08-.36-.3-.52-.78-.52h-.39Zm0-1.87h.41c.46,0,.86-.14.86-.53s-.2-.54-.8-.54a2.15,2.15,0,0,0-.47,0Z" style="fill: #3d7edb"/>
  <path d="M320.15,12.57c-.74,0-1.49,0-2.26,0l-9.4,0c-3.15,0-6.42-.24-8.65-.24v1.85h.74c3,0,4.14.74,4.14,4.89V48.7c0,4.95-2,5-3.89,5h-1v1.86c3.53,0,6.87-.25,10.26-.25,3.16,0,6.25.25,9.41.25V53.71h-1c-3.16,0-5.88-.12-5.88-5.13V14.77l5.17.06c5.84.31,8.58,4.11,8.58,9.79,0,6.08-2.26,10.5-7.17,10.58h-3.16V37h3.16s2.47,0,3.52-.09c6.8-.68,11.94-5.32,11.94-12.56C334.68,15.35,328.55,12.57,320.15,12.57Z"/>
  <path d="M134.64,50.17c0,3.35,2.61,3.53,4.84,3.53h1.18v1.86c-2.73,0-6.7-.24-10-.24-3.16,0-6.88.24-9.36.24V53.7h.87c2.23,0,4.59-.31,4.59-3.53V17.68c0-3.22-2.36-3.53-4.59-3.53h-.87V12.29c2.48,0,6.2.25,9.36.25,3.35,0,7.32-.25,10-.25v1.86h-1.18c-2.23,0-4.84.19-4.84,3.53V31.26h22.51V17.68c0-3.34-2.61-3.53-4.84-3.53h-1.18V12.29c2.73,0,6.7.25,10.05.25,3.16,0,6.88-.25,9.36-.25v1.86h-.87c-2.23,0-4.59.31-4.59,3.53V50.17c0,3.22,2.36,3.53,4.59,3.53h.87v1.86c-2.48,0-6.2-.24-9.36-.24-3.35,0-7.32.24-10.05.24V53.7h1.18c2.23,0,4.84-.18,4.84-3.53V34.73H134.64Z"/>
  <path d="M195.84,48.74c-2.48,4.34-6.7,7.75-11.91,7.75-7.81,0-12-7.19-12-14.25,0-7.82,5.27-15.44,13.7-15.44,6.38,0,9.85,4.71,9.73,10.85l-.74.68H177.86c0,6.32,2.91,12.58,9.61,12.58a9.4,9.4,0,0,0,7.37-3.34ZM185.05,36.47c3.35,0,3.84-.06,3.84-2.29S187.34,29,184.55,29c-3.78,0-5.89,3.6-6.57,7.44Z"/>
  <path d="M215.4,36c0-3.59-2.11-5-4.9-5-3.59,0-4.52.93-4.77,4.4-.12,1.68-3.47,2.49-4.4,2.49-.68,0-1.18-.5-1.18-1.43a5.86,5.86,0,0,1,3.41-5.21c2.05-1.05,4.34-2.23,6.7-3.59A6.51,6.51,0,0,1,214,26.8c5.45,0,8.37,2.85,8.37,8.24V47.69c0,2.67.18,4.59,1.92,4.59a3,3,0,0,0,1.73-.81l.81,1.12c-1.86,2.29-3.53,3.9-6.51,3.9s-4.46-2-4.71-4.89c-2.73,2.66-5.52,4.89-9.49,4.89-3.72,0-6.75-2.29-6.75-6.38,0-4.84,4-6.33,8.37-7.94l7.68-2.66Zm0,5.58c-3.41,1.12-9.11,2.3-9.11,6.64,0,2.66,1.36,4,3.78,4,2.85,0,4.65-2.36,5.33-3.29Z"/>
  <path d="M233.09,16.63c0-1.36-.18-1.92-1.61-2.48-.68-.25-1.36-.56-2-.81V11.86a62,62,0,0,0,9.92-3.66l.69.56v43c0,1.8,1.48,1.92,3.22,1.92h.68v1.86c-2.35-.12-4.71-.24-7.13-.24s-5.08.12-7.38.24V53.7c2,0,3.66,0,3.66-1.92Z"/>
  <path d="M262.76,31.2h-7.37v17c0,2.6,1.55,3.34,3.28,3.34a6.13,6.13,0,0,0,3.66-1.11l.81,1c-2.3,3-4.9,5-8.43,5-4.72,0-6.27-3-6.27-6.38V31.2h-3.72V29.71a35.7,35.7,0,0,0,9.92-8.86l.75.37v6.51h7.37Z"/>
  <path d="M276,52.22c0,1.48,1.42,1.48,3,1.48h.93v1.86c-2.35-.12-4.71-.24-7.07-.24-2.54,0-5,.12-7.44.24V53.7c2,0,3.66,0,3.66-1.92V16.63c0-1.36-.18-1.92-1.61-2.48l-2.05-.81V11.86a62,62,0,0,0,9.92-3.66l.69.56V31.32c2.72-1.86,5.89-4.52,9.67-4.52,4.46,0,7.68,2.17,7.68,8V52c0,1.73,1.55,1.73,3,1.73h.75v1.86c-2.36-.12-4.65-.24-7-.24s-4.9.12-7.38.24V53.7h.62c1.24,0,3,0,3-1.61V36.59c0-3.78-1.92-5.2-4.71-5.2-2,0-4.34,1.24-5.7,2.1Z"/>
  <path d="M349.5,36c0-3.59-2.11-5-4.9-5-3.6,0-4.53.93-4.77,4.4-.13,1.68-3.48,2.49-4.41,2.49-.68,0-1.17-.5-1.17-1.43a5.84,5.84,0,0,1,3.41-5.21c2-1.05,4.34-2.23,6.69-3.59a6.53,6.53,0,0,1,3.72-.87c5.46,0,8.37,2.85,8.37,8.24V47.69c0,2.67.19,4.59,1.92,4.59a3,3,0,0,0,1.74-.81l.8,1.12c-1.86,2.29-3.53,3.9-6.5,3.9s-4.47-2-4.72-4.89c-2.73,2.66-5.51,4.89-9.48,4.89-3.72,0-6.76-2.29-6.76-6.38,0-4.84,4-6.33,8.37-7.94l7.69-2.66Zm0,5.58c-3.41,1.12-9.12,2.3-9.12,6.64,0,2.66,1.37,4,3.79,4,2.85,0,4.65-2.36,5.33-3.29Z"/>
  <path d="M374.33,52.28c0,1.42,1.67,1.42,4.59,1.42h.93v1.86c-2.92-.06-5.83-.24-8.75-.24-2.6,0-5.14.18-7.74.24V53.7H364c2.1,0,3.4-.24,3.4-1.61V35.23c0-2-.37-2.67-1.92-2.91l-2-.38V30.46a46.25,46.25,0,0,0,10.17-3.66l.68.37v4.28h.12c1.12-1.8,3.91-4.65,7.13-4.65,2.11,0,4,1,4,3.66a3.37,3.37,0,0,1-3.47,3.65c-2.42,0-2.42-2.35-4.34-2.35-1.49,0-3.41,1.18-3.41,4.21Z"/>
  <path d="M406.24,31.2h-7.38v17c0,2.6,1.55,3.34,3.29,3.34a6.13,6.13,0,0,0,3.66-1.11l.8,1c-2.29,3-4.9,5-8.43,5-4.71,0-6.26-3-6.26-6.38V31.2H388.2V29.71a35.7,35.7,0,0,0,9.92-8.86l.74.37v6.51h7.38Z"/>
  <path d="M409.09,53.7h.43c1.8,0,3.23,0,3.23-1.86V34.3c0-1-.13-1.36-1.49-1.74-.74-.18-1.43-.43-2.17-.62V30.46c1.92-.5,4-1.24,5.64-1.8,1.43-.5,2.92-1.3,4.28-1.86l.68.56v4c2.73-1.86,5.89-4.52,9.67-4.52,4.47,0,7.69,2.17,7.69,8V52c0,1.73,1.55,1.73,3,1.73h.74v1.86c-2.35-.12-4.65-.24-7-.24s-4.9.12-7.38.24V53.7h.62c1.24,0,3,0,3-1.61V36.59c0-3.78-1.92-5.2-4.71-5.2-2,0-4.34,1.24-5.71,2.1V52.22c0,1.48,1.43,1.48,3,1.48h.93v1.86c-2.36-.12-4.71-.24-7.07-.24-2.54,0-5,.12-7.44.24Z"/>
  <path d="M466.93,48.74c-2.48,4.34-6.7,7.75-11.9,7.75-7.82,0-12-7.19-12-14.25,0-7.82,5.27-15.44,13.7-15.44,6.39,0,9.86,4.71,9.73,10.85l-.74.68H449c0,6.32,2.91,12.58,9.61,12.58a9.42,9.42,0,0,0,7.38-3.34ZM456.14,36.47c3.35,0,3.85-.06,3.85-2.29S458.44,29,455.65,29c-3.79,0-5.89,3.6-6.58,7.44Z"/>
  <path d="M479.81,52.28c0,1.42,1.68,1.42,4.59,1.42h.93v1.86c-2.91-.06-5.83-.24-8.74-.24-2.61,0-5.15.18-7.75.24V53.7h.62c2.11,0,3.41-.24,3.41-1.61V35.23c0-2-.37-2.67-1.92-2.91l-2-.38V30.46a45.89,45.89,0,0,0,10.17-3.66l.68.37v4.28h.13c1.11-1.8,3.9-4.65,7.13-4.65,2.1,0,4,1,4,3.66a3.37,3.37,0,0,1-3.47,3.65c-2.42,0-2.42-2.35-4.34-2.35-1.49,0-3.41,1.18-3.41,4.21Z"/>
  <path d="M509.47,35.17c-.31-3.47-1.61-6.14-5.58-6.14-2.11,0-4.22,1.3-4.22,3.72,0,6.76,12.83,5.21,12.83,14.63,0,6.7-5.39,9.11-10.53,9.11a20.44,20.44,0,0,1-7.32-1.61L494.09,48l1.74-.37c.37,3.41,2.42,6.63,6.07,6.63,2.42,0,4.65-1.36,4.65-4.09,0-6-12.46-5-12.46-14.51,0-5.45,4.22-8.86,9.92-8.86a20,20,0,0,1,7.32,1.49,39.1,39.1,0,0,0-.13,6.57Z"/>
  <path d="M517.27,26.77A3.19,3.19,0,1,1,514,29.94a3.16,3.16,0,0,1,3.27-3.17Zm0,.56a2.62,2.62,0,0,0,0,5.24A2.5,2.5,0,0,0,519.76,30a2.53,2.53,0,0,0-2.51-2.63Zm-.56,4.36h-.62V28.37a6.43,6.43,0,0,1,1.16-.1,1.63,1.63,0,0,1,1,.26.82.82,0,0,1,.34.69.85.85,0,0,1-.66.8v0a1,1,0,0,1,.56.79,2.51,2.51,0,0,0,.24.84h-.64a2.49,2.49,0,0,1-.26-.88c-.07-.35-.29-.51-.77-.51h-.4Zm0-1.87h.42c.46,0,.85-.14.85-.54s-.19-.53-.79-.53a2.57,2.57,0,0,0-.48,0Z"/>
  <g>
    <path d="M121.31,115.72h.87c2.23,0,4.59-.31,4.59-3.53V79.7c0-3.22-2.36-3.53-4.59-3.53h-.87V74.31c2.42,0,6.14.24,9.18.24s6.82-.24,9.73-.24v1.86h-.87c-2.23,0-4.59.31-4.59,3.53v32.49c0,3.22,2.36,3.53,4.59,3.53h.87v1.86c-3,0-6.7-.25-9.8-.25s-6.69.25-9.11.25Z"/>
    <path d="M142.92,115.72h.44c1.8,0,3.22,0,3.22-1.86V96.31c0-1-.12-1.36-1.49-1.73-.74-.19-1.42-.44-2.17-.62V92.47c1.93-.5,4-1.24,5.65-1.8,1.42-.49,2.91-1.3,4.27-1.86l.69.56v4c2.72-1.86,5.89-4.53,9.67-4.53,4.46,0,7.68,2.17,7.68,8V114c0,1.74,1.55,1.74,3,1.74h.75v1.86c-2.36-.12-4.65-.25-7-.25s-4.9.13-7.38.25v-1.86h.62c1.24,0,3,0,3-1.61V98.61c0-3.78-1.92-5.21-4.71-5.21a11.84,11.84,0,0,0-5.7,2.11v18.72c0,1.49,1.42,1.49,3,1.49h.93v1.86c-2.35-.12-4.71-.25-7.07-.25-2.54,0-5,.13-7.44.25Z"/>
    <path d="M193.43,97.18c-.31-3.47-1.61-6.14-5.57-6.14-2.11,0-4.22,1.31-4.22,3.72,0,6.76,12.83,5.21,12.83,14.64,0,6.69-5.39,9.11-10.54,9.11a20.65,20.65,0,0,1-7.31-1.61l-.56-6.88,1.74-.38c.37,3.41,2.41,6.64,6.07,6.64,2.42,0,4.65-1.37,4.65-4.09,0-6-12.46-5-12.46-14.51,0-5.46,4.22-8.87,9.92-8.87a19.89,19.89,0,0,1,7.31,1.49,39.09,39.09,0,0,0-.12,6.57Z"/>
    <path d="M217.4,93.21H210v17c0,2.61,1.55,3.35,3.28,3.35a6.07,6.07,0,0,0,3.66-1.12l.81,1.06c-2.3,3-4.9,5-8.44,5-4.71,0-6.26-3-6.26-6.39V93.21h-3.72V91.73a35.59,35.59,0,0,0,9.92-8.87l.75.37v6.51h7.37Z"/>
    <path d="M230.86,114.23c0,1.49,1.42,1.49,3,1.49h.93v1.86c-2.35-.12-4.71-.25-7.06-.25-2.55,0-5,.13-7.44.25v-1.86h.43c1.8,0,3.22,0,3.22-1.86V96.31c0-1-.12-1.36-1.48-1.73-.75-.19-1.43-.44-2.17-.62V92.47c1.92-.5,4-1.24,5.64-1.8,1.42-.49,2.91-1.3,4.28-1.86l.68.56Zm-3.48-34.1a3.76,3.76,0,0,1-3.78-3.78,3.79,3.79,0,0,1,7.57,0A3.76,3.76,0,0,1,227.38,80.13Z"/>
    <path d="M253.59,93.21h-7.38v17c0,2.61,1.55,3.35,3.28,3.35a6,6,0,0,0,3.66-1.12l.81,1.06c-2.3,3-4.9,5-8.43,5-4.71,0-6.26-3-6.26-6.39V93.21h-3.72V91.73a35.73,35.73,0,0,0,9.92-8.87l.74.37v6.51h7.38Z"/>
    <path d="M260.23,94.46c0-.94-.19-1.31-1.3-1.62l-2.61-.74V90.61a42.72,42.72,0,0,0,10.54-1.8l.62.37c-.12,1.74-.31,3.66-.31,5.58v13.71c0,3.65,1.74,5.08,4.59,5.08,2.29,0,4.4-1.43,5.83-2.6V95.07c0-1.3-.25-1.55-1.49-2l-3.1-1V90.61c3.16-.19,8.31-.62,11.22-1.8l.62.37a40.13,40.13,0,0,0-.31,5.58V112.5c0,1.67.37,2.23,1.67,2.23h1.86v1.49a47.8,47.8,0,0,0-9.85,2.29l-.62-.5v-4.4c-2.67,2.23-6.2,4.9-9.8,4.9-5.52,0-7.56-3-7.56-7.25Z"/>
    <path d="M307.28,93.21h-7.37v17c0,2.61,1.55,3.35,3.28,3.35a6.07,6.07,0,0,0,3.66-1.12l.81,1.06c-2.3,3-4.9,5-8.44,5-4.71,0-6.26-3-6.26-6.39V93.21h-3.72V91.73a35.59,35.59,0,0,0,9.92-8.87l.75.37v6.51h7.37Z"/>
    <path d="M333.61,110.76c-2.48,4.34-6.7,7.75-11.91,7.75-7.81,0-12-7.19-12-14.26,0-7.81,5.27-15.44,13.7-15.44,6.38,0,9.86,4.71,9.73,10.85l-.74.68H315.63c0,6.33,2.91,12.59,9.61,12.59a9.45,9.45,0,0,0,7.38-3.35ZM322.82,98.48c3.35,0,3.84-.06,3.84-2.29S325.11,91,322.32,91c-3.78,0-5.88,3.6-6.57,7.44Z"/>
  </g>
</svg>
